<svg xmlns="http://www.w3.org/2000/svg" version="1.1" viewBox="-5.0 -10.0 110.0 135.0">
 <path d="m67.27 36.898c-7.8281 1.1406-15.5 4.5117-22.41 8.2812-3.5 1.9102-6.8516 4.0703-10.039 6.4609-2.0391 1.5391-6.1992 4.4219-5.0117 7.5703 0.42969 1.1484 3.0117 1.1211 4.0703 1.1289 2 0.019531 4.0312-0.33984 6-0.67969 3.9805-0.69922 7.8789-1.8906 11.641-3.3711 3.75-1.4805 7.3711-3.3086 10.789-5.4414 3.1797-1.9805 6.5508-4.1211 8.9688-7.0312 1.1602-1.3906 2.3008-3.1289 2.4883-4.9883 0.17188-1.6016-1.1914-1.9414-2.5-2-4.2617-0.19141-9.3086 0.55859-12.941 2.9102-0.14062 0.089844-0.058594 0.33984 0.12109 0.28906 3.5312-1.1719 6.8398-2.3086 10.609-2.3086 0.85156 0 2-0.10938 2.8086 0.16016 1.2617 0.41016 0.42969 1.8203 0.058594 2.5898-0.71094 1.4688-1.7305 2.7383-2.8984 3.8711-4.9102 4.7695-11.578 8.1016-17.891 10.578-3.2383 1.2695-6.5586 2.25-9.9297 3.0703-1.5391 0.37109-3.0898 0.71875-4.6602 0.98047-0.94922 0.16016-1.9219 0.28906-2.8906 0.32031-0.75 0.019532-2.25 0.19922-2.8711-0.26953-1.5-1.1406 1.0312-3.9492 1.8711-4.75 1.2891-1.2188 2.7812-2.2695 4.2188-3.3086 2.7695-2 5.6602-3.8203 8.6602-5.4609 6.9297-3.7891 14.301-5.9883 21.84-8.1914 0.25781-0.097656 0.14844-0.44922-0.10156-0.41016z"/>
 <path d="m60.211 32.871c-2.6914 0.55859-5.2383 1.6719-7.7617 2.75-2.6992 1.1484-5.3398 2.4219-7.9219 3.8086-5.0195 2.7109-9.8008 5.8398-14.281 9.3711-2.2305 1.7617-4.4688 3.5781-6.4805 5.5781-1.6992 1.6992-3.1797 3.8008-3.1914 6.3008-0.03125 5.9883 7.7305 6.1914 12.059 5.9609 5.6406-0.30078 11.27-1.7695 16.578-3.6289 5.1406-1.7891 10.102-4.1094 14.77-6.9102 4.6602-2.8008 9.0391-6.0898 13.02-9.8008 3.1992-2.9883 7.5586-8.2305 3.6602-12.461-3.4883-3.7891-10.148-2.6094-14.578-1.7891-6.3984 1.1797-12.93 3.4102-18.219 7.2812-0.39844 0.28906-0.058593 0.89844 0.39062 0.67188 4.7695-2.3398 9.5781-4.5391 14.762-5.8281 2.5703-0.64062 5.1914-1.0898 7.8281-1.3281 2.0391-0.17969 4.1406-0.17188 6.1016 0.48828 2.0703 0.69922 3.7812 2.3086 3.6094 4.6602-0.17188 2.5-2.1406 4.6289-3.8516 6.2812-3.6094 3.4805-7.6094 6.5703-11.852 9.25-8.2617 5.2188-17.488 8.8516-27.109 10.602-2.7891 0.51172-5.5898 0.94922-8.4297 0.89062-2.5-0.050781-6.3281-0.21094-7.1484-3.1484-0.71875-2.5586 1.0508-4.9102 2.7695-6.6016 1.7812-1.7383 3.7109-3.3516 5.6484-4.9102 4.5117-3.6289 9.3281-6.8984 14.359-9.7617 2.4805-1.4102 5.0195-2.7188 7.6016-3.9297 2.5703-1.2109 5.2617-2.1719 7.7812-3.4805 0.19531-0.097656 0.066406-0.35938-0.11328-0.31641z"/>
 <path d="m63.121 24.789c-3.9883 1.0508-7.8281 2.7109-11.59 4.4219-3.8594 1.7617-7.6289 3.7188-11.301 5.8398-7.2812 4.1992-14.141 9.0703-20.59 14.461-5.6094 4.6875-12.859 10.629-12 18.797 0.35938 3.4609 2.2305 6.5391 5.4492 8.0117 3.6289 1.6484 7.9219 1.4883 11.801 1.1914 9.0117-0.71094 17.648-3.6602 25.91-7.1914 7.6992-3.3008 15.141-7.1992 22.051-11.949 3.4102-2.3516 6.7188-4.8789 9.8281-7.6094 2.9883-2.6211 6.0195-5.4219 8.2109-8.7695 1.9492-2.9688 3.0391-6.4414 2.4492-9.9883-0.53906-3.2812-2.5586-6.1484-5.75-7.3008-1.8516-0.67188-3.8789-0.76172-5.8281-0.80078-2.25-0.050782-4.5 0.039062-6.7305 0.26172-4.3086 0.41016-8.6094 1.2383-12.762 2.4805-8.5117 2.5508-16.559 6.4492-24.57 10.23-2 0.94141-3.9688 1.8984-5.9219 2.9414-0.71875 0.37891-0.089844 1.4219 0.62891 1.0781 3.6992-1.7812 7.3086-3.7617 11.031-5.5117 3.8203-1.8008 7.7109-3.3984 11.699-4.7891 7.7383-2.6992 15.898-4.7383 24.141-4.7812 3.5117-0.019531 8.0586-0.17188 10.48 2.8516 2.0117 2.5117 2.1406 6.0898 1.1211 9.0312-1.2305 3.5508-3.9219 6.4102-6.5586 8.9883-2.8008 2.7305-5.7812 5.3086-8.9297 7.6289-6.2812 4.6289-13.09 8.5-20.129 11.84-7.4609 3.5391-15.238 6.6406-23.34 8.3398-4.0703 0.85937-8.25 1.4219-12.41 1.3281-3.6289-0.078124-7.5-1.0312-9.1992-4.5781-3.4805-7.2695 3.25-14.172 8.1289-18.629 11.641-10.648 25.281-19.059 39.82-25.148 1.6914-0.71094 3.3594-1.4219 5.0312-2.1914 0.28516-0.15234 0.097656-0.55469-0.17188-0.48438z"/>
 <path d="m73.391 23.18c-0.51953-0.64844-1.3984-0.60156-2.0703-0.23828-0.73047 0.37891-1.1992 1.1289-1.3203 1.9297-0.14844 0.94141 0.089844 1.9102 0.76172 2.6094 0.58984 0.62109 1.5117 1 2.3594 0.92188 0.96094-0.089844 1.8203-0.62891 2.2891-1.4688 0.51172-0.92969 0.48828-2.0508-0.12891-2.9219-0.55078-0.78125-1.3906-1.4102-2.3516-1.5508-0.98047-0.14063-1.9492 0.12109-2.6602 0.82812-0.69922 0.69922-1.0508 1.7891-0.67969 2.75 0.17969 0.46875 0.5 1.0312 0.98047 1.2383 0.23828 0.10156 0.5 0.21094 0.76953 0.21094 0.25 0 0.46875-0.14062 0.62891-0.32031 0.10156-0.10938 0.12891-0.26953 0.050781-0.39844-0.019531-0.039062-0.050781-0.089843-0.019531-0.019531-0.03125-0.078125-0.050781-0.16016-0.10156-0.23047-0.078126-0.14062-0.21875-0.26172-0.33984-0.37109-0.058594-0.058594 0.03125 0.03125 0.03125 0.039062-0.03125-0.039062-0.058594-0.078125-0.089844-0.12891-0.058594-0.070313-0.10938-0.14844-0.17969-0.21094 0.089844 0.089844 0.03125 0.039063-0.019531-0.03125-0.03125-0.050781-0.12109-0.14844-0.12109-0.21094 0 0 0.050781 0.14844 0.03125 0.058593-0.011719-0.03125-0.019532-0.058593-0.03125-0.089843-0.019532-0.070313-0.03125-0.14062-0.050782-0.19922-0.019531-0.089844 0.011719 0.070312 0.011719 0.078125 0.011719-0.011719 0-0.070313-0.011719-0.089844 0-0.058593 0.019532-0.14844 0.011719-0.21094 0.03125 0.12109-0.03125 0.14062 0 0.050781 0.011719-0.03125 0.011719-0.058594 0.019531-0.089844 0.011719-0.03125 0.070313-0.21875 0.03125-0.10156-0.050781 0.12109 0.039063-0.078125 0.058594-0.10938s0.14062-0.21094 0.070312-0.10938c-0.078124 0.10156 0.058594-0.058594 0.089844-0.089844 0.039063-0.039063 0.089844-0.078125 0.14062-0.12891 0.12109-0.10938-0.14844 0.10156 0.039063-0.019531 0.058594-0.039063 0.12109-0.070313 0.19141-0.10938 0.14844-0.089843-0.16016 0.050782 0 0 0.070312-0.019531 0.14062-0.050781 0.21094-0.058593 0.039062-0.011719 0.23828-0.039063 0.078124-0.019531-0.16016 0.019531-0.011718 0 0.03125 0h0.12891c0.070312 0 0.12891 0.011718 0.19922 0.011718 0.12891 0.011719-0.19922-0.039062-0.070313-0.011718 0.03125 0.011718 0.058594 0.011718 0.10156 0.019531 0.058593 0.011719 0.12891 0.03125 0.19141 0.050781 0.03125 0.011719 0.058594 0.019531 0.089844 0.03125 0.14844 0.050781 0.039062 0.039062-0.03125-0.019531 0.089843 0.089843 0.26953 0.14062 0.37891 0.21094 0.019531 0.019532 0.058594 0.050782 0.078125 0.058594 0 0-0.16016-0.12891-0.078125-0.058594 0.058594 0.050782 0.12109 0.10156 0.17188 0.16016 0.058593 0.050782 0.10156 0.12109 0.16016 0.17188 0.078125 0.078124-0.058594-0.078126-0.058594-0.078126 0.011719 0.03125 0.050781 0.058594 0.058594 0.089844 0.050781 0.070313 0.089844 0.14062 0.12891 0.21094 0.019531 0.03125 0.03125 0.070312 0.050781 0.10156 0.070313 0.12109-0.058593-0.17969-0.019531-0.050781 0.03125 0.12891 0.058594 0.32031 0.12109 0.44141 0 0-0.019531-0.23828-0.019531-0.12891 0 0.039063 0.011718 0.078125 0.011718 0.12109 0 0.070312-0.011718 0.14062-0.011718 0.21094 0 0 0.039062-0.23047 0.011718-0.12109-0.011718 0.039063-0.019531 0.078126-0.03125 0.12109-0.019531 0.058594-0.039062 0.12109-0.058593 0.17188-0.03125 0.10156 0.039062-0.10156 0.039062-0.10156-0.019531 0.019531-0.03125 0.058593-0.039062 0.078125-0.039063 0.070312-0.089844 0.14062-0.12891 0.21094-0.050781 0.089844 0.058594-0.070312 0.058594-0.070312-0.019531 0.019531-0.039062 0.050781-0.058594 0.070312-0.050781 0.050781-0.10156 0.10938-0.14844 0.14844-0.019531 0.019531-0.050781 0.039062-0.070313 0.058593-0.070312 0.070313 0.058594-0.050781 0.070313-0.050781-0.058594 0.011719-0.16016 0.10156-0.21094 0.12891-0.14063 0.089843 0.14844-0.050782-0.011719 0.011718-0.070313 0.019532-0.14062 0.039063-0.21094 0.058594-0.019531 0-0.078125 0.011719-0.089843 0.019531 0.011718 0 0.17969-0.011719 0.078124-0.011719-0.070312 0-0.14844 0.011719-0.21875 0.011719-0.03125 0-0.26172-0.019531-0.12891 0 0.12891 0.019531-0.070312-0.019531-0.10156-0.019531-0.070313-0.019531-0.14062-0.039062-0.21094-0.058594-0.019531-0.011718-0.12109-0.039062-0.019531 0 0.10156 0.039063-0.019531-0.011718-0.039063-0.019531-0.070312-0.03125-0.12891-0.070313-0.19141-0.10938-0.058594-0.039062-0.14844-0.10938-0.039062-0.019531-0.10938-0.089844-0.21875-0.19922-0.30859-0.30859 0.089844 0.10938-0.03125-0.058594-0.050781-0.089844-0.03125-0.058593-0.058594-0.12109-0.089844-0.17969-0.039063-0.070313 0 0.011718 0.011719 0.019531-0.011719-0.03125-0.019532-0.058594-0.03125-0.10156-0.03125-0.089843-0.050782-0.17187-0.070313-0.26172-0.011719-0.03125-0.011719-0.070313-0.019531-0.10156 0.011719 0.070313 0 0.050781 0-0.011719-0.011719-0.089843-0.011719-0.17969-0.011719-0.26953 0-0.03125 0-0.070312 0.011719-0.10156 0-0.011719 0.011719-0.14062 0.011719-0.078125-0.011719 0.078125 0.011719-0.058594 0.019531-0.078125 0.011719-0.039063 0.019531-0.089844 0.03125-0.12891 0.019531-0.078124 0.039062-0.14844 0.070312-0.23047-0.03125 0.078125 0.011719-0.019532 0.011719-0.03125 0.019531-0.03125 0.03125-0.070313 0.050781-0.10156 0.019532-0.03125 0.10156-0.14844 0.078126-0.12891-0.039063 0.058594 0.03125-0.039063 0.039062-0.050781 0.03125-0.03125 0.050781-0.058594 0.078125-0.089844 0.12891-0.12891 0.12109-0.12109 0.26953-0.21094 0.14844-0.078124 0.14062-0.078124 0.30859-0.12109 0.17188-0.039063 0.35938-0.050781 0.55859 0.078125 0.17188 0.10938 0.41016 0.050781 0.51953-0.10156 0.12891-0.19922 0.097656-0.38672-0.03125-0.55859z"/>
 <path d="m72.219 26.211c0.050781 0.19922 0.10156 0.39062 0.14844 0.58984 0.019531 0.058594 0.089843 0.10938 0.14844 0.089844 0.070313-0.019531 0.10156-0.089844 0.089844-0.14844-0.050781-0.19922-0.10156-0.39063-0.14844-0.58984-0.019531-0.058594-0.089843-0.10938-0.14844-0.089844-0.070313 0.007812-0.10938 0.078125-0.089844 0.14844z"/>
 <path d="m74 47.93c0.46094-0.26953 0.5-0.80859 0.28906-1.2617-0.23047-0.5-0.76953-0.69141-1.2812-0.71875-0.39844-0.019531-0.83984 0.14844-1.1914 0.32031-0.30859 0.14844-0.60156 0.37891-0.82812 0.64062-0.5 0.57031-0.82812 1.3086-0.76953 2.0781s0.39844 1.5195 0.98828 2.0312c0.62891 0.53906 1.4102 0.82031 2.25 0.71094 0.78906-0.10938 1.5391-0.48828 2.0703-1.1016 1.0391-1.1797 1.3516-2.9609 0.30859-4.2383-0.44922-0.55859-1.2617-0.83984-1.9609-0.82812-0.42188 0.011719-0.83984 0.10156-1.1797 0.35938-0.33984 0.26172-0.60156 0.62891-0.60156 1.0703 0 0.44141 0.42188 0.73047 0.82812 0.64062 0.011719 0 0.019531-0.011718 0.039063-0.011718 0.19922-0.078125 0.21875-0.089844 0.070312-0.03125 0-0.011719 0.10156-0.019532 0.12109-0.019532 0.078125-0.019531 0.16016-0.050781 0.23828-0.070312 0.070313-0.019531 0.23047-0.03125-0.070313 0.011719 0.089844-0.011719 0.19141-0.019531 0.28906-0.039063 0.039063-0.011718 0.089844-0.019531 0.12891-0.03125-0.17188 0.019532-0.21094 0.03125-0.10938 0.019532 0.03125 0 0.058594 0 0.089844-0.011719h0.14062c0.089844 0 0.19922 0.058593-0.070313-0.019531 0.070313 0.019531 0.14844 0.03125 0.21875 0.050781 0.039063 0.011719 0.089844 0.03125 0.12891 0.039062-0.23828-0.050781-0.16016-0.070312-0.058594-0.019531 0.039063 0.019531 0.078125 0.039062 0.12109 0.070312 0.03125 0.019532 0.19922 0.14844 0.050781 0.03125-0.14844-0.10937-0.019531-0.011718 0 0.011719 0.03125 0.03125 0.070312 0.058594 0.10156 0.10156 0.089844 0.089844 0.039063 0.12891-0.039062-0.058594 0.019531 0.050781 0.070312 0.10156 0.089844 0.14062 0.03125 0.039063 0.039062 0.10938 0.078125 0.14844-0.12109-0.14844-0.070313-0.17187-0.03125-0.058593 0.011719 0.039062 0.03125 0.089843 0.039062 0.12891 0.011719 0.039063 0.019531 0.070313 0.019531 0.10938 0.019532 0.10938 0.011719 0.070312-0.011718-0.10156-0.011719 0.10937 0.011718 0.23047 0.011718 0.33984-0.011718 0.10938-0.070312 0.19922 0.011719-0.039062-0.011719 0.03125-0.011719 0.078125-0.019531 0.10938-0.019531 0.10938-0.050781 0.21875-0.089844 0.32812-0.011718 0.019531-0.011718 0.039062-0.019531 0.050781-0.039063 0.10156-0.03125 0.070312 0.03125-0.078125-0.039063 0.050781-0.070313 0.14062-0.10156 0.21094-0.039062 0.070313-0.14062 0.17188-0.14844 0.23828 0.03125-0.039063 0.058594-0.070313 0.078125-0.10938-0.019531 0.03125-0.050781 0.058593-0.078125 0.089843-0.039063 0.050782-0.089844 0.089844-0.12891 0.12891-0.011719 0.011719-0.14062 0.10938-0.14062 0.12109 0.03125-0.03125 0.070312-0.050781 0.10156-0.078124-0.03125 0.019531-0.070312 0.050781-0.10156 0.070312-0.10156 0.070312-0.21094 0.12891-0.32031 0.17969-0.19141 0.10156 0.21875-0.070313 0.011719-0.011719-0.058594 0.019531-0.12109 0.039062-0.17969 0.050781-0.050781 0.011719-0.14062 0.011719-0.17969 0.039062 0.12109-0.070312 0.21094-0.019531 0.089844-0.011718-0.058594 0-0.12109 0.011718-0.17969 0.011718-0.10938 0-0.23047-0.070312 0.039063 0.019532-0.12109-0.03125-0.25-0.078125-0.37109-0.10156 0.23047 0.050781 0.17188 0.070313 0.078125 0.03125-0.039063-0.019531-0.078125-0.039062-0.12109-0.058593-0.050781-0.03125-0.089843-0.058594-0.14062-0.089844-0.17188-0.10938 0.19141 0.17188 0.039063 0.03125-0.078125-0.078125-0.16016-0.14844-0.23047-0.23047-0.10938-0.12109 0.058594 0.070313 0.058594 0.078125-0.019532-0.058594-0.089844-0.12891-0.12109-0.17969-0.03125-0.050781-0.039062-0.10156-0.070312-0.14844 0.019531 0.050781 0.039062 0.10156 0.058593 0.14844-0.011719-0.03125-0.03125-0.070312-0.039062-0.10156-0.019531-0.050781-0.03125-0.10156-0.039063-0.16016-0.011718-0.039063-0.039062-0.21875-0.011718-0.019532 0.03125 0.19922 0 0.011719 0-0.03125v-0.16016c0-0.21094-0.058594 0.26172-0.011719 0.058594 0.019531-0.070312 0.03125-0.14062 0.050781-0.21094 0.03125-0.089843 0.12109-0.19922-0.019531 0.039063 0.03125-0.050781 0.050781-0.10156 0.070312-0.14844 0.03125-0.050782 0.058594-0.089844 0.089844-0.14063 0.089844-0.14844-0.17188 0.19141 0.011719-0.011718 0.039062-0.039063 0.070312-0.078125 0.10938-0.12109 0.03125-0.03125 0.050781-0.050781 0.078125-0.070312 0.078125-0.070313 0.058594-0.050782-0.078125 0.058593 0.089843-0.039062 0.19141-0.12109 0.28125-0.17188 0.17969-0.10156-0.23828 0.078125-0.039063 0.019532 0.070313-0.019532 0.14062-0.050782 0.21094-0.058594 0.10938-0.019532 0.21094-0.039063 0.32031-0.058594 0.19141-0.050781-0.23828-0.011719-0.058594 0.011719 0.03125 0 0.070313 0 0.10156 0.011719 0.30078-0.039063 0.32812-0.039063 0.089844-0.011719 0.070312 0.011719 0.19141 0.039062-0.058594-0.019531 0.21094 0.050781-0.17188-0.10156-0.23047-0.19141 0.16797 0.3125 0.53906 0.41406 0.80859 0.25391z"/>
 <path d="m38 48.988c-0.21875-0.10156-0.44922-0.17188-0.69922-0.16016-0.26172 0.011719-0.48828 0.078125-0.73047 0.19922-0.17187 0.089844-0.33984 0.21875-0.46094 0.37109-0.12891 0.16016-0.19922 0.28906-0.26953 0.5-0.039063 0.12891-0.058594 0.28125-0.070313 0.42187-0.011719 0.28125 0.070313 0.55078 0.19141 0.80078 0.050781 0.10156 0.10937 0.17969 0.17187 0.26953 0.070313 0.089844 0.12891 0.17188 0.21875 0.23828 0.21875 0.17969 0.46094 0.33984 0.73828 0.39062 0.28125 0.050781 0.57812 0.070313 0.85938-0.03125 0.28125-0.10156 0.51953-0.23047 0.73047-0.44141 0.16016-0.14844 0.26953-0.33984 0.37109-0.53125 0.070313-0.12891 0.12891-0.26172 0.16016-0.41016 0.03125-0.14844 0.058593-0.30859 0.050781-0.46094-0.011719-0.14844-0.03125-0.30859-0.070313-0.46094-0.050781-0.14844-0.10938-0.30078-0.19141-0.44141-0.078125-0.12891-0.17969-0.26172-0.30078-0.35156-0.078125-0.058594-0.19141-0.16016-0.28906-0.21875-0.10938-0.070313-0.23828-0.10938-0.35156-0.16016-0.30859-0.12109-0.64844-0.10938-0.96875-0.050781-0.30859 0.058593-0.60156 0.25-0.82812 0.46094-0.12109 0.10938-0.21094 0.23828-0.30078 0.37109-0.019532 0.03125-0.039063 0.058593-0.050782 0.089843-0.058594 0.12109-0.10938 0.23828-0.14844 0.37109-0.089844 0.26953-0.070313 0.51953-0.019531 0.78906 0.03125 0.16016 0.10156 0.32812 0.19141 0.46875 0.078125 0.12891 0.17969 0.26953 0.30078 0.37109 0.21875 0.17969 0.35156 0.26172 0.62109 0.35938 0.44922 0.17187 0.92188-0.019532 1.25-0.32031 0.089843-0.078125 0.16016-0.17969 0.21875-0.26953 0.10938-0.17969 0.12891-0.39844 0.078125-0.60938-0.03125-0.14062-0.070313-0.17188-0.14062-0.26172-0.12109-0.14844-0.23828-0.21094-0.41016-0.28125 0.058594 0.03125 0.12109 0.050781 0.19141 0.078125-0.039063-0.019531-0.070313-0.039063-0.10156-0.058594 0.058594 0.050781 0.12109 0.089844 0.17969 0.14062l-0.089844-0.089844c0.050781 0.070313 0.10156 0.12891 0.16016 0.19922-0.078125-0.10156-0.089844-0.17969-0.21094-0.28906-0.10156-0.089844-0.21094-0.16016-0.30859-0.23047 0.070313 0.058594 0.14844 0.10938 0.21875 0.17188-0.039063-0.03125-0.078125-0.070313-0.10938-0.10938 0.058594 0.070312 0.12109 0.14844 0.17188 0.21875-0.03125-0.039062-0.050781-0.070312-0.070313-0.10938 0.039063 0.089844 0.078126 0.17969 0.10938 0.26953-0.019532-0.039062-0.03125-0.089844-0.039063-0.12891 0.011719 0.10156 0.03125 0.19922 0.039063 0.30078-0.011719-0.050781-0.011719-0.10156 0-0.14844-0.011719 0.10156-0.03125 0.19922-0.039063 0.30859 0.019531-0.12891 0.03125-0.26172 0.050781-0.39063-0.011718 0.10156-0.03125 0.19922-0.039062 0.30859 0.011718-0.058594 0.019531-0.10938 0.039062-0.17188-0.039062 0.089844-0.078125 0.17969-0.12109 0.26953 0.03125-0.058593 0.058594-0.12109 0.10156-0.17187-0.058594 0.078124-0.12109 0.14844-0.17969 0.23047 0.039062-0.050781 0.089843-0.10156 0.14062-0.14062-0.078124 0.058594-0.14844 0.12109-0.23047 0.17969 0.050781-0.039063 0.10156-0.058594 0.14844-0.089844-0.089843 0.039063-0.17969 0.070313-0.26953 0.10938 0.050781-0.019531 0.10156-0.03125 0.14844-0.039062-0.10156 0.011718-0.19922 0.03125-0.28906 0.039062 0.058594-0.011719 0.12109-0.011719 0.17969 0-0.10156-0.011719-0.19141-0.03125-0.28906-0.039062 0.058594 0.011718 0.12109 0.03125 0.17969 0.050781-0.089844-0.039063-0.17188-0.070313-0.26172-0.10938 0.058593 0.03125 0.12109 0.058594 0.17969 0.10938-0.070312-0.058594-0.14844-0.10938-0.21875-0.17188 0.10156 0.078125 0.21094 0.16016 0.30859 0.23828-0.070312-0.058594-0.14062-0.10938-0.21094-0.17188 0.050782 0.039062 0.10156 0.089844 0.14844 0.14844-0.050781-0.070313-0.10938-0.14063-0.16016-0.21094 0.039062 0.058594 0.078125 0.12109 0.10156 0.17969-0.03125-0.078126-0.070312-0.16016-0.10156-0.23047 0.019531 0.058593 0.039062 0.12109 0.050781 0.17969-0.011719-0.078125-0.019531-0.17188-0.03125-0.25 0.011719 0.070313 0.011719 0.14062 0 0.21094 0.011719-0.078125 0.019531-0.16016 0.03125-0.23828 0 0.03125-0.019531 0.058594-0.03125 0.089844 0.03125-0.070312 0.058594-0.14062 0.089844-0.21875-0.03125 0.070313-0.070313 0.14062-0.12109 0.19922 0.050781-0.058594 0.089844-0.12109 0.14062-0.17969-0.050781 0.058593-0.10156 0.12109-0.17188 0.17187 0.058594-0.050781 0.12109-0.089843 0.17969-0.14062-0.058593 0.050781-0.12891 0.089843-0.19922 0.12109 0.070312-0.03125 0.14062-0.058593 0.21094-0.089843-0.070312 0.03125-0.12891 0.050781-0.19922 0.058593 0.078126-0.011719 0.14844-0.019531 0.23047-0.03125-0.058593 0.011719-0.12109 0.011719-0.19141 0 0.078125 0.011719 0.14844 0.019531 0.23047 0.03125-0.070313-0.011719-0.14062-0.03125-0.19922-0.050781 0.070313 0.03125 0.14062 0.058594 0.21094 0.089844-0.070312-0.03125-0.14062-0.070313-0.19922-0.12109 0.058594 0.039062 0.10938 0.089844 0.17188 0.12891-0.058594-0.050781-0.12109-0.10156-0.17188-0.16016 0.039062 0.058594 0.089844 0.10938 0.12891 0.17188-0.050781-0.070313-0.10156-0.14062-0.12891-0.21875 0.03125 0.070313 0.058594 0.12891 0.078125 0.19922-0.03125-0.058594-0.039063-0.12891-0.058594-0.19922 0.011719 0.070313 0.019531 0.14844 0.03125 0.21875-0.011719-0.070313-0.011719-0.14062 0-0.21094-0.011719 0.070312-0.019531 0.14844-0.03125 0.21875 0.011719-0.070313 0.03125-0.12891 0.050781-0.19141-0.03125 0.058594-0.050781 0.12891-0.078125 0.19141 0.039063-0.10156 0.078125-0.19922 0.12109-0.28906-0.03125 0.058594-0.050781 0.12891-0.078125 0.19141 0.03125-0.070312 0.070312-0.12891 0.10938-0.19141-0.039063 0.050781-0.078125 0.10156-0.12109 0.14844 0.050781-0.058593 0.10938-0.12109 0.17188-0.17187-0.050781 0.039062-0.10156 0.078124-0.14844 0.10937 0.058593-0.039062 0.12109-0.078124 0.19141-0.10937-0.058594 0.019531-0.10938 0.050781-0.17188 0.070312 0.070312-0.03125 0.14062-0.050781 0.21094-0.058594-0.058594 0.011719-0.12109 0.019532-0.17188 0.019532 0.070313-0.011719 0.12891-0.011719 0.19922 0 0.058594-0.011719 0.10938-0.011719 0.17188-0.019532 0.078125-0.019531 0.14844-0.058594 0.21094-0.10938 0.10156-0.078125 0.19141-0.19141 0.21875-0.32031 0.03125-0.10938 0.03125-0.21875 0-0.32812 0.015625-0.14062-0.11719-0.32031-0.24609-0.38281z"/>
 <path d="m10.25 70.84c-1.7812-0.078125-3.2188 1.3906-3.3984 3.1016-0.17969 1.7305 1.3398 3.2812 2.9805 3.5391 0.94922 0.14844 1.8594-0.070313 2.6289-0.64844 0.82031-0.60938 1.4805-1.4219 1.7695-2.4102 0.30859-1.0703 0.078125-2.1602-0.60938-3.0312-0.64062-0.80859-1.7188-1.3086-2.6797-1.6016-0.62891-0.19141-1.3086-0.26172-1.9492-0.10156-0.60938 0.16016-1.1289 0.57812-1.4805 1.1016-0.28125 0.42188-0.5 1.0117-0.51172 1.5195 0 0.5 0.12109 0.98047 0.26953 1.4531 0.10156 0.30078 0.58984 0.44141 0.73828 0.10156 0.12109-0.26953 0.25-0.53906 0.37891-0.80859 0.089843-0.17969 0.19141-0.35156 0.26172-0.53906 0.03125-0.078125 0.050781-0.14844 0.078124-0.23047-0.070312 0.17188 0.058594-0.12109 0.078126-0.14844 0.039062-0.070313 0.078124-0.12891 0.12109-0.19141 0.12109-0.19141-0.12109 0.10156 0.039063-0.050781 0.058594-0.050781 0.10938-0.10938 0.16016-0.14844-0.17188 0.14844 0.03125 0 0.058594-0.019532 0.17969-0.12109-0.16016 0.03125 0.089844-0.039062 0.089843-0.03125 0.17969-0.050781 0.26953-0.070312-0.21094 0.039062 0.078125 0 0.10938 0 0.058594 0 0.12891 0 0.19141 0.011718-0.10938-0.019531-0.10156-0.019531 0.019531 0 0.19141 0.039063 0.37891 0.089844 0.57031 0.16016 0.011718 0 0.30859 0.12109 0.12891 0.039063 0.089844 0.039063 0.17969 0.078125 0.26953 0.12109 0.32812 0.16016 0.64062 0.33984 0.94141 0.55078-0.23047-0.16016 0.14844 0.10938 0.21094 0.16016-0.17969-0.14844 0.039063 0.039063 0.070313 0.058594 0.070312 0.058594 0.12109 0.12891 0.19141 0.19141 0.17969 0.17969-0.058594-0.14844 0.058594 0.078125 0.14844 0.28125 0.21094 0.39062 0.21094 0.71094 0 0.078125-0.011719 0.17188-0.011719 0.25-0.011718 0.25 0.050782-0.14844-0.019531 0.10156-0.050781 0.17188-0.078125 0.32812-0.14062 0.48828-0.089844 0.23828 0.070312-0.10937-0.050781 0.10938-0.039063 0.078124-0.078125 0.14844-0.12109 0.23047-0.039063 0.078125-0.089844 0.14844-0.14062 0.21875-0.058594 0.078125-0.070312 0.089844-0.03125 0.050782-0.039062 0.050781-0.070312 0.089843-0.10938 0.12891-0.21094 0.23828-0.44141 0.42188-0.71875 0.57031-0.14844 0.078125-0.17969 0.10156-0.35938 0.14844-0.070312 0.019531-0.14062 0.03125-0.21875 0.050781-0.089844 0.019531-0.10156 0.019531-0.019531 0-0.050781 0-0.10156 0.011719-0.14844 0.011719-0.53125 0.019531-1.0195-0.12891-1.5117-0.51172 0.089844 0.070313-0.10156-0.089844-0.089843-0.078125-0.058594-0.050781-0.10938-0.10156-0.16016-0.16016-0.12109-0.12891-0.12891-0.14062-0.21875-0.26953-0.17187-0.26953-0.23047-0.41016-0.30859-0.71875-0.32812-1.3203 0.85156-2.8008 2.1484-3.0781 0.24609-0.050782 0.18359-0.39063-0.035156-0.40234z"/>
 <path d="m9.2305 72.039c-1.1797 1.0391-1.3906 3.4102 0.25 4.1289 0.67188 0.28906 1.4297 0.28125 2.0703-0.10156 0.60938-0.35938 0.98047-1.0703 0.92188-1.7812-0.070312-0.82031-0.60938-1.5508-1.2305-2.0508-0.62109-0.48828-1.5-0.83984-2.2695-0.44922-0.78906 0.39844-1.0391 1.5-0.73047 2.2695 0.32031 0.78906 1.0586 1.3281 1.9297 1.1914 0.78125-0.12891 1.5117-0.92969 1.2188-1.7617-0.14062-0.39062-0.44922-0.67969-0.83984-0.82812-0.17969-0.058594-0.39062-0.10156-0.57812-0.058594-0.19141 0.039063-0.35156 0.19922-0.44922 0.35156-0.12109 0.17969 0.078124 0.39062 0.26172 0.33984 0.12891-0.03125 0.12891 0 0.28125 0.011719 0.070313 0 0.14844 0.019531 0.21094 0.050781 0.12109 0.058594 0.12109 0.070313 0.21094 0.16016 0.039063 0.050781 0.089844 0.12891 0.10156 0.17969 0.019531 0.058594 0.019531 0.10156 0 0.17188-0.011719 0.019531-0.011719 0.050781-0.019532 0.070313 0.03125-0.070313 0.011719-0.011719 0 0-0.019531 0.03125-0.03125 0.050781-0.050781 0.078125-0.03125 0.039062 0.050781-0.039063-0.011719 0.011719-0.019531 0.019531-0.050781 0.039062-0.070312 0.070312-0.050781 0.050781 0.058594-0.039062 0 0-0.050781 0.03125-0.10156 0.058594-0.14844 0.089844-0.019531 0.011718-0.078124 0.03125 0 0-0.019531 0.011718-0.050781 0.019531-0.078124 0.03125-0.039063 0.011718-0.21875 0.039062-0.10938 0.03125-0.050781 0.011718-0.10937 0.011718-0.16016 0.011718h-0.078125c0.10938 0.011719 0.03125 0.011719 0 0-0.03125-0.011718-0.19922-0.078124-0.078125-0.019531-0.070312-0.03125-0.12891-0.070312-0.19141-0.10938 0.089844 0.058594-0.039062-0.039062-0.058594-0.058594-0.019531-0.019531-0.039062-0.039062-0.058594-0.058593 0.070313 0.070312 0.019532 0.03125 0 0.011719-0.039062-0.058594-0.070312-0.10938-0.10156-0.17188-0.011719-0.019531-0.050781-0.10156-0.019531-0.03125 0.03125 0.070313-0.011719-0.039062-0.019531-0.058593-0.039063-0.12891-0.058594-0.26172-0.089844-0.39062 0.019531 0.12891 0-0.019532 0-0.070313v-0.089843c0-0.019532 0.019531-0.16016 0-0.039063 0.011718-0.070313 0.03125-0.12891 0.039062-0.19922 0 0.011719 0.058594-0.14062 0.03125-0.078125-0.03125 0.058594 0.019532-0.039062 0.03125-0.050781 0.011719-0.019531 0.070313-0.10938 0.019532-0.039062 0.019531-0.019532 0.039062-0.050782 0.070312-0.070313 0.019531-0.019531 0.078125-0.058594 0 0 0.039062-0.019531 0.070312-0.050781 0.10938-0.070313 0.03125-0.019531 0.078125-0.019531-0.011719 0 0.03125-0.011718 0.058594-0.019531 0.078125-0.019531 0.03125-0.011719 0.058594-0.011719 0.078125-0.019531-0.10156 0.019531-0.03125 0 0 0h0.19922c0.078125 0-0.070313-0.011719 0.011719 0 0.050781 0.011719 0.089844 0.019531 0.14062 0.03125 0.070312 0.019531 0.14062 0.039062 0.21094 0.058594 0.03125 0.011718 0.058594 0.019531 0.089844 0.03125-0.019531-0.011719-0.058594-0.03125 0.019531 0.011718 0.12891 0.070313 0.25 0.12891 0.37109 0.21875 0.41016 0.28125 0.80078 0.76953 0.87109 1.3008 0.011719 0.078125 0-0.050782 0 0.03125v0.12109 0.10156c0 0.011719-0.011719 0.078125 0 0.03125-0.011719 0.03125-0.019531 0.058594-0.019531 0.10156-0.019532 0.089844-0.011719 0.050782 0 0.019532-0.019532 0.03125-0.12109 0.17188-0.050782 0.078125-0.03125 0.039062-0.070312 0.078125-0.10938 0.10938-0.019531 0.019531-0.039062 0.03125-0.050781 0.050781-0.050781 0.050781 0.10156-0.058594 0.011719-0.011719-0.039063 0.019532-0.078125 0.050782-0.12109 0.070313-0.011719 0-0.058594 0.03125-0.058594 0.03125s0.12109-0.039063 0 0c-0.039062 0.019531-0.089843 0.03125-0.14062 0.039062-0.03125 0.011719-0.21094 0.039063-0.10156 0.019531 0.10938-0.019531-0.058594 0-0.078125 0h-0.17969c-0.03125 0-0.058593-0.011718-0.089843-0.011718 0.011718 0 0.17187 0.03125 0.070312 0.011718-0.050781-0.011718-0.10156-0.019531-0.14062-0.03125-0.050781-0.011718-0.10156-0.019531-0.14062-0.039062-0.03125-0.011719-0.058594-0.019531-0.089844-0.03125-0.10938-0.039062 0.019532 0 0.050782 0.019531-0.039063-0.039062-0.10938-0.058593-0.16016-0.089843-0.019531-0.011719-0.039062-0.03125-0.058593-0.039063-0.10938-0.070313 0.12109 0.10938 0.03125 0.019531-0.039063-0.039062-0.089844-0.089844-0.12891-0.12891-0.078125-0.078125 0.039063 0.050781 0.039063 0.058594-0.011719-0.039063-0.050782-0.070313-0.070313-0.10938-0.039062-0.058594-0.078125-0.12109-0.10938-0.19141-0.011718-0.019531-0.03125-0.050781-0.039062-0.078124-0.039063-0.089844-0.019532-0.12109 0 0.019531-0.011719-0.070313-0.050782-0.14062-0.070313-0.21094-0.019531-0.070312-0.019531-0.14844-0.039062-0.21094 0.011719 0.011718 0.019531 0.17969 0.011719 0.058594 0-0.039063-0.011719-0.089844-0.011719-0.12891 0-0.070312 0-0.14844 0.011719-0.21875 0-0.03125 0.011718-0.058593 0.011718-0.089843 0 0.03125-0.011718 0.058593-0.011718 0.10156 0-0.03125 0.011718-0.058594 0.019531-0.089844 0.011719-0.070312 0.03125-0.14844 0.058593-0.21875 0.011719-0.03125 0.019532-0.058594 0.03125-0.078125 0.011719-0.019531 0.050782-0.14062 0.019532-0.050781-0.039063 0.10156 0.019531-0.03125 0.019531-0.039062 0.019531-0.03125 0.03125-0.070313 0.050781-0.10156 0.039063-0.070313 0.078125-0.12891 0.12109-0.19141 0.050781-0.078125-0.10156 0.10938 0 0 0.03125-0.03125 0.058594-0.070313 0.089844-0.10156 0.21875-0.23828 0.25-0.64844 0-0.87891-0.33203-0.21094-0.69531-0.19141-0.95312 0.039062z"/>
</svg>